:SAMPLES-PER-SECOND 30
:FRAME-RANGE 1-2643
:FULLY-SPECIFIED
:DEGREES
1322
root  21.5586 39.3807 -65.6087 8.80249 -54.3481 -4.46976
RightUpLeg  11.004 -12.1979 -8.04952
RightLeg  2.43383 -24.9461 5.54829
RightFoot  -7.71208 -0.636671 18.2829
RightToes  7.56698e-010 0 -3.6325e-017
Spine  12.4156 2.12846 8.17442
Spine1  -4.60668 3.76421 -6.03354
HEad  -1.98013 27.3084 -7.45217
LeftShoulder1  0.849565 1.19721 -30.7529
LeftArm  26.8292 20.4207 -33.4932
LeftForeArm  -1.35474 -19.3613 -7.99255
LeftHand  0.368076 -1.49054 -6.09635
RightShoulder  3.78587 4.19078 42.9684
RightArm  38.596 -8.34625 15.4948
RightForeArm  -6.84154 24.5339 5.59479
RightHand  0.389423 4.3109 4.37362
LeftUpLeg  -29.349 28.8596 -16.3858
LeftLeg  18.8551 2.26122 1.18766
LeftFoot  -8.79163 0.14301 -4.05678
LeftToes  1.48244e-010 1.61973e-010 3.308e-011
1323
root  20.5107 39.1708 -65.0372 9.03943 -52.2136 -4.4628
RightUpLeg  14.1083 -11.5833 -7.50288
RightLeg  0.121051 -26.5805 6.53985
RightFoot  -7.85556 -0.676091 20.2502
RightToes  7.56698e-010 0 -3.6325e-017
Spine  12.0741 2.1613 7.57318
Spine1  -4.22699 3.87571 -6.27868
HEad  -2.37611 26.2268 -7.06612
LeftShoulder1  0.827094 1.24962 -30.6104
LeftArm  24.1421 21.5953 -32.2564
LeftForeArm  1.12315 -16.8194 -10.3262
LeftHand  0.367889 -1.15934 -6.43739
RightShoulder  4.03358 4.66544 43.1233
RightArm  35.4861 -7.7478 15.529
RightForeArm  -4.75799 26.1084 5.85176
RightHand  0.378063 4.19455 4.29748
LeftUpLeg  -26.0675 20.7763 -11.8752
LeftLeg  12.1787 17.2837 -1.14104
LeftFoot  -8.65475 0.148017 -4.09847
LeftToes  1.48244e-010 1.61973e-010 3.308e-011
1324
root  19.4103 38.8371 -64.3172 9.30115 -50.3894 -4.91989
RightUpLeg  16.5163 -11.9278 -7.60257
RightLeg  1.09012 -26.3968 6.76987
RightFoot  -8.78706 -0.578387 22.9469
RightToes  7.56698e-010 0 -3.6325e-017
Spine  11.7988 2.26809 6.72748
Spine1  -3.82836 3.93907 -5.98991
HEad  -2.61177 25.3066 -6.49628
LeftShoulder1  0.792123 1.32508 -30.2713
LeftArm  21.8964 23.034 -31.1199
LeftForeArm  2.48316 -14.9339 -11.9165
LeftHand  0.384584 -0.990351 -6.93137
RightShoulder  4.20858 4.95582 43.4657
RightArm  32.626 -7.24189 15.5693
RightForeArm  -2.72684 27.3313 6.03483
RightHand  0.372761 4.19714 4.23209
LeftUpLeg  -24.7757 14.7234 -9.31446
LeftLeg  10.592 28.5351 -1.48232
LeftFoot  -7.32666 -0.16228 5.88487
LeftToes  1.48244e-010 1.61973e-010 3.308e-011
1325
root  18.2733 38.4682 -63.4619 8.80615 -48.8733 -5.15573
RightUpLeg  18.4975 -14.469 -9.1532
RightLeg  5.4614 -23.0862 5.36787
RightFoot  -9.69218 -0.464511 27.1534
RightToes  7.56698e-010 0 -3.6325e-017
Spine  11.9048 2.37446 5.0003
Spine1  -3.31846 3.85155 -5.10172
HEad  -2.58621 24.7686 -5.59577
LeftShoulder1  0.775038 1.35807 -30.0306
LeftArm  19.3889 24.3898 -29.9144
LeftForeArm  3.07648 -13.2241 -13.1949
LeftHand  0.403445 -0.844162 -7.46283
RightShoulder  4.48258 5.33663 44.3413
RightArm  30.287 -6.89808 15.0008
RightForeArm  -1.22452 28.6374 6.26975
RightHand  0.3807 4.19025 4.33158
LeftUpLeg  -26.773 22.1172 -13.7334
LeftLeg  17.0374 20.4455 3.77309
LeftFoot  -8.94438 -0.217241 12.9075
LeftToes  1.48244e-010 1.61973e-010 3.308e-011
1326
root  17.2463 38.1681 -62.574 7.01611 -46.5883 -4.18015
RightUpLeg  19.5882 -28.0348 -14.9861
RightLeg  15.1151 -7.63644 -0.615784
RightFoot  -9.23453 -0.712273 34.2645
RightToes  7.56698e-010 0 -3.6325e-017
Spine  12.8206 2.21384 2.48292
Spine1  -3.3811 3.12196 -3.87481
HEad  -2.58927 24.2782 -5.03944
LeftShoulder1  0.842085 1.21318 -30.6822
LeftArm  17.512 23.6946 -28.0349
LeftForeArm  3.09431 -10.7001 -14.8981
LeftHand  0.379874 -0.409205 -7.60527
RightShoulder  4.61141 5.32146 45.7491
RightArm  28.6993 -6.20143 14.4784
RightForeArm  -0.618823 29.3317 6.40749
RightHand  0.363225 4.13097 4.15008
LeftUpLeg  -27.2507 24.0184 -15.5491
LeftLeg  23.4327 15.726 7.6606
LeftFoot  -11.4661 0.0816699 11.4302
LeftToes  1.48244e-010 1.61973e-010 3.308e-011
1327
root  16.3463 38.0862 -61.6422 6.29285 -44.076 -3.59363
RightUpLeg  14.1161 -24.5242 -13.7998
RightLeg  28.1103 -7.23902 -4.40118
RightFoot  -3.66382 -2.42499 34.7226
RightToes  7.56698e-010 0 -3.6325e-017
Spine  12.757 2.02847 1.37236
Spine1  -2.60142 2.75324 -3.67729
HEad  -1.79432 23.0736 -4.77298
LeftShoulder1  0.996023 0.823775 -31.094
LeftArm  12.8019 20.8356 -27.43
LeftForeArm  7.0344 -6.01043 -16.8663
LeftHand  0.361862 -0.105845 -7.68499
RightShoulder  4.57795 5.15039 46.3335
RightArm  27.3515 -6.19088 14.8124
RightForeArm  -0.675421 29.3444 6.41362
RightHand  0.337858 4.05139 3.87935
LeftUpLeg  -25.3946 22.8758 -14.9486
LeftLeg  25.7673 14.9366 8.05317
LeftFoot  -13.4703 0.295937 11.5122
LeftToes  1.48244e-010 1.61973e-010 3.308e-011
1328
root  15.5203 38.168 -60.6736 6.09448 -42.22 -3.38126
RightUpLeg  4.31267 -15.4006 -9.79182
RightLeg  43.8862 -8.97761 -9.42394
RightFoot  9.74114 -3.48353 18.929
RightToes  7.56698e-010 0 -3.6325e-017
Spine  12.7036 1.7908 0.95829
Spine1  -2.25768 2.52802 -3.77289
HEad  -0.677976 22.7823 -4.86694
LeftShoulder1  1.04903 0.66806 -30.9238
LeftArm  11.3855 18.6244 -27.8557
LeftForeArm  8.91491 -5.05516 -17.031
LeftHand  0.379984 -0.108905 -8.06417
RightShoulder  4.70352 5.34452 46.5639
RightArm  27.3138 -6.18971 15.5933
RightForeArm  -0.715707 28.8553 6.2958
RightHand  0.355735 4.24655 4.00236
LeftUpLeg  -22.9079 22.0719 -14.1569
LeftLeg  26.1648 14.2401 7.83304
LeftFoot  -15.354 0.458058 10.4029
LeftToes  1.48244e-010 1.61973e-010 3.308e-011
1329
root  14.7706 38.0483 -59.8457 5.10303 -39.8619 -2.14355
RightUpLeg  -3.43649 -8.32646 -8.37791
RightLeg  55.241 -3.65638 -6.06195
RightFoot  11.0857 -2.74017 14.1464
RightToes  7.56698e-010 0 -3.6325e-017
Spine  13.054 1.51205 -1.26522
Spine1  -1.47915 1.69997 -3.28221
HEad  -0.274799 22.9894 -5.28647
LeftShoulder1  1.08765 0.578777 -31.1176
LeftArm  12.7915 16.3319 -28.3886
LeftForeArm  8.44711 -6.85693 -16.3723
LeftHand  0.412623 -0.454358 -8.19269
RightShoulder  4.749 5.46034 46.4017
RightArm  27.6932 -6.3864 16.0373
RightForeArm  0.748526 30.0389 6.50928
RightHand  0.392586 4.31825 4.40755
LeftUpLeg  -20.9912 20.2197 -14.1247
LeftLeg  27.6824 13.8522 8.11323
LeftFoot  -17.4332 0.588732 9.06997
LeftToes  1.48244e-010 1.61973e-010 3.308e-011
1330
root  14.0088 38.0381 -58.9219 4.25732 -36.9833 -1.7081
RightUpLeg  -9.52395 -3.39639 -7.70408
RightLeg  62.0687 -1.02307 -2.63134
RightFoot  7.85874 -2.44557 14.7078
RightToes  7.56698e-010 0 -3.6325e-017
Spine  13.6893 1.07582 -2.44548
Spine1  -0.743967 0.855397 -2.98081
HEad  -0.190621 22.8332 -5.67107
LeftShoulder1  1.18652 0.336851 -31.4042
LeftArm  16.9904 13.4874 -29.0871
LeftForeArm  5.4573 -10.0743 -15.0494
LeftHand  0.39811 -0.742434 -7.49766
RightShoulder  4.55201 5.11877 46.2376
RightArm  27.708 -6.7595 16.123
RightForeArm  3.74777 31.4135 6.69162
RightHand  0.441259 4.72709 4.75968
LeftUpLeg  -17.9353 18.0698 -13.3136
LeftLeg  28.1184 13.3781 7.99723
LeftFoot  -19.1455 0.647797 7.79438
LeftToes  1.48244e-010 1.61973e-010 3.308e-011
1331
root  13.2047 38.1755 -57.8546 4.0415 -33.194 -2.17575
RightUpLeg  -14.8672 -1.46485 -6.95602
RightLeg  64.526 -1.90031 -4.95017
RightFoot  5.72122 -1.91707 12.9921
RightToes  7.56698e-010 0 -3.6325e-017
Spine  14.0748 0.342306 -2.8572
Spine1  -0.385775 -0.212293 -1.83487
HEad  -0.400904 22.111 -5.96024
LeftShoulder1  1.27256 0.139281 -31.7655
LeftArm  20.725 10.1771 -30.0784
LeftForeArm  3.16664 -13.5138 -12.9253
LeftHand  0.369116 -1.16393 -6.48612
RightShoulder  4.15204 4.42447 45.8648
RightArm  27.8592 -7.42178 16.1076
RightForeArm  5.94467 32.6054 6.8762
RightHand  0.408025 4.76534 4.36049
LeftUpLeg  -14.0547 15.4931 -11.6646
LeftLeg  27.0972 12.6296 7.24048
LeftFoot  -20.2582 0.661671 6.9134
LeftToes  1.48244e-010 1.61973e-010 3.308e-011
1332
root  12.4113 38.4026 -56.7001 4.35205 -29.0623 -3.00851
RightUpLeg  -19.8318 -1.73136 -6.25063
RightLeg  62.9189 -4.38046 -9.79033
RightFoot  3.10557 -1.27088 10.1703
RightToes  7.56698e-010 0 -3.6325e-017
Spine  14.1065 -0.528411 -2.6247
Spine1  -0.463944 -1.22291 -0.402693
HEad  -0.627189 20.9305 -5.84744
LeftShoulder1  1.3315 -0.0254898 -31.672
LeftArm  25.0042 6.83251 -31.5956
LeftForeArm  -0.17212 -17.5743 -9.60216
LeftHand  0.354503 -1.37512 -5.97912
RightShoulder  3.66024 3.53475 45.5451
RightArm  28.1218 -8.2417 15.9909
RightForeArm  6.84263 33.1412 6.96586
RightHand  0.359932 4.63838 3.86876
LeftUpLeg  -9.91515 12.4865 -9.51952
LeftLeg  24.7205 12.0109 5.68746
LeftFoot  -20.6959 0.667439 6.62758
LeftToes  1.48244e-010 1.61973e-010 3.308e-011
1333
root  11.635 38.6172 -55.513 4.49573 -25.1544 -3.76556
RightUpLeg  -23.6307 -2.84296 -5.66215
RightLeg  57.3162 -7.05584 -12.0977
RightFoot  0.479542 -0.938698 9.08084
RightToes  7.56698e-010 0 -3.6325e-017
Spine  14.2973 -1.27877 -2.29339
Spine1  -0.745738 -2.04637 1.00463
HEad  -0.799471 19.693 -5.71327
LeftShoulder1  1.38356 -0.202515 -31.2753
LeftArm  27.7564 3.57848 -33.2024
LeftForeArm  -2.00394 -21.4308 -6.07962
LeftHand  0.362889 -1.79094 -5.72786
RightShoulder  3.21847 2.6988 45.4587
RightArm  28.6022 -8.98432 15.5633
RightForeArm  6.48913 32.9961 6.94784
RightHand  0.34878 4.59164 3.76054
LeftUpLeg  -5.72497 10.1672 -7.32057
LeftLeg  21.9682 10.8985 3.90543
LeftFoot  -21.0706 0.642042 6.04824
LeftToes  1.48244e-010 1.61973e-010 3.308e-011
1334
root  10.8672 38.7312 -54.2906 4.55896 -21.8983 -4.20331
RightUpLeg  -26.2396 -4.09074 -5.18145
RightLeg  47.8642 -9.14885 -10.9778
RightFoot  -0.588633 -0.955004 10.0801
RightToes  7.56698e-010 0 -3.6325e-017
Spine  14.2231 -1.76379 -2.1498
Spine1  -0.785957 -2.57171 2.20732
HEad  -1.0749 18.4362 -5.54007
LeftShoulder1  1.41822 -0.336612 -30.8736
LeftArm  24.8224 0.13114 -34.402
LeftForeArm  1.86633 -24.6945 -5.18773
LeftHand  0.358944 -2.09787 -5.40327
RightShoulder  2.84744 2.0002 45.3375
RightArm  29.3541 -9.51274 15.294
RightForeArm  5.76565 32.1746 6.77402
RightHand  0.334334 4.62843 3.5773
LeftUpLeg  -1.83126 8.76535 -5.48637
LeftLeg  19.3482 9.37091 2.41835
LeftFoot  -21.1515 0.674365 6.36776
LeftToes  1.48244e-010 1.61973e-010 3.308e-011
1335
root  10.084 38.7594 -53.0182 4.68982 -19.3389 -4.40356
RightUpLeg  -27.6066 -5.87881 -4.33154
RightLeg  34.9362 -10.0423 -7.69986
RightFoot  -0.627413 -1.07206 11.3522
RightToes  7.56698e-010 0 -3.6325e-017
Spine  13.9491 -2.04561 -2.01962
Spine1  -0.821208 -2.80753 2.92634
HEad  -1.43456 17.3519 -5.31644
LeftShoulder1  1.45062 -0.487661 -30.2837
LeftArm  20.5632 -3.02365 -35.3613
LeftForeArm  6.5672 -27.959 -5.68566
LeftHand  0.357907 -2.14289 -5.16269
RightShoulder  2.60483 1.51338 45.5229
RightArm  30.0786 -9.88552 14.9059
RightForeArm  5.58811 30.7318 6.41599
RightHand  0.315032 4.81094 3.2824
LeftUpLeg  1.80718 7.61157 -3.96631
LeftLeg  16.8537 7.47334 1.2651
LeftFoot  -21.4948 0.626245 5.58903
LeftToes  1.48244e-010 1.61973e-010 3.308e-011
